<?xml version="1.0" encoding="UTF-8"?>
<svg xmlns="http://www.w3.org/2000/svg" width="900" height="540" viewBox="0 0 900 540" font-family="monospace">
  <rect width="900" height="540" fill="#0E2A4A"/>
  <rect x="14" y="14" width="872" height="512" fill="none" stroke="#8FD8FF" stroke-width="2"/>

  <text x="450" y="52" text-anchor="middle" fill="#EAF4FF" font-size="24" font-weight="bold">THE PHOTON ROOM</text>
  <text x="450" y="76" text-anchor="middle" fill="#9FBEDA" font-size="13">sun to panel to banks - copper for the hungry, light for the small</text>

  <circle cx="110" cy="170" r="34" fill="none" stroke="#F2DC8E" stroke-width="3"/>
  <line x1="110" y1="118" x2="110" y2="102" stroke="#F2DC8E" stroke-width="3"/>
  <line x1="110" y1="222" x2="110" y2="238" stroke="#F2DC8E" stroke-width="3"/>
  <line x1="58" y1="170" x2="42" y2="170" stroke="#F2DC8E" stroke-width="3"/>
  <line x1="162" y1="170" x2="178" y2="170" stroke="#F2DC8E" stroke-width="3"/>
  <line x1="73" y1="133" x2="62" y2="122" stroke="#F2DC8E" stroke-width="3"/>
  <line x1="147" y1="133" x2="158" y2="122" stroke="#F2DC8E" stroke-width="3"/>
  <line x1="73" y1="207" x2="62" y2="218" stroke="#F2DC8E" stroke-width="3"/>
  <line x1="147" y1="207" x2="158" y2="218" stroke="#F2DC8E" stroke-width="3"/>
  <text x="110" y="266" text-anchor="middle" fill="#F2DC8E" font-size="14">SUN</text>

  <line x1="180" y1="170" x2="206" y2="170" stroke="#F2DC8E" stroke-width="3"/>
  <polygon points="206,164 218,170 206,176" fill="#F2DC8E"/>

  <rect x="225" y="140" width="130" height="60" fill="none" stroke="#8FD8FF" stroke-width="2.5"/>
  <line x1="258" y1="140" x2="258" y2="200" stroke="#8FD8FF" stroke-width="1"/>
  <line x1="291" y1="140" x2="291" y2="200" stroke="#8FD8FF" stroke-width="1"/>
  <line x1="324" y1="140" x2="324" y2="200" stroke="#8FD8FF" stroke-width="1"/>
  <text x="290" y="222" text-anchor="middle" fill="#EAF4FF" font-size="14">SOLAR PANEL</text>
  <text x="290" y="240" text-anchor="middle" fill="#9FBEDA" font-size="11">100 W - USB-C out</text>

  <line x1="358" y1="170" x2="400" y2="170" stroke="#8FD8FF" stroke-width="3"/>
  <polygon points="400,164 412,170 400,176" fill="#8FD8FF"/>

  <rect x="420" y="128" width="120" height="24" fill="none" stroke="#8FD8FF" stroke-width="2"/>
  <rect x="420" y="158" width="120" height="24" fill="none" stroke="#8FD8FF" stroke-width="2"/>
  <rect x="420" y="188" width="120" height="24" fill="none" stroke="#8FD8FF" stroke-width="2"/>
  <text x="480" y="234" text-anchor="middle" fill="#EAF4FF" font-size="14">BANKS x3</text>
  <text x="480" y="252" text-anchor="middle" fill="#9FBEDA" font-size="11">99.5 Wh each - the flywheel</text>

  <line x1="543" y1="155" x2="636" y2="155" stroke="#8FD8FF" stroke-width="3"/>
  <polygon points="636,149 648,155 636,161" fill="#8FD8FF"/>
  <text x="590" y="143" text-anchor="middle" fill="#8FD8FF" font-size="12">USB-C PD to 140 W</text>

  <rect x="655" y="106" width="180" height="30" fill="none" stroke="#8FD8FF" stroke-width="2"/>
  <rect x="655" y="140" width="180" height="30" fill="none" stroke="#8FD8FF" stroke-width="2"/>
  <rect x="655" y="174" width="180" height="30" fill="none" stroke="#8FD8FF" stroke-width="2"/>
  <text x="745" y="126" text-anchor="middle" fill="#EAF4FF" font-size="13">LAPTOP 30-140 W</text>
  <text x="745" y="160" text-anchor="middle" fill="#EAF4FF" font-size="13">PHONE 20 W</text>
  <text x="745" y="194" text-anchor="middle" fill="#EAF4FF" font-size="13">FAN / SPEAKER</text>
  <text x="745" y="228" text-anchor="middle" fill="#8FD8FF" font-size="13" font-weight="bold">COPPER TIER - the gulpers</text>

  <line x1="480" y1="216" x2="480" y2="288" stroke="#8FD8FF" stroke-width="3"/>
  <polygon points="474,288 486,288 480,300" fill="#8FD8FF"/>

  <rect x="400" y="304" width="150" height="96" fill="none" stroke="#F2DC8E" stroke-width="2.5"/>
  <text x="475" y="346" text-anchor="middle" fill="#F2DC8E" font-size="13">IR EMITTER</text>
  <text x="475" y="366" text-anchor="middle" fill="#9FBEDA" font-size="11">Class 1 - under 10 ms interlock</text>

  <line x1="552" y1="316" x2="636" y2="316" stroke="#F2DC8E" stroke-width="2.5" stroke-dasharray="7,6"/>
  <polygon points="636,310 648,316 636,322" fill="#F2DC8E"/>
  <line x1="552" y1="350" x2="636" y2="350" stroke="#F2DC8E" stroke-width="2.5" stroke-dasharray="7,6"/>
  <polygon points="636,344 648,350 636,356" fill="#F2DC8E"/>
  <line x1="552" y1="384" x2="636" y2="384" stroke="#F2DC8E" stroke-width="2.5" stroke-dasharray="7,6"/>
  <polygon points="636,378 648,384 636,390" fill="#F2DC8E"/>

  <rect x="655" y="301" width="180" height="30" fill="none" stroke="#F2DC8E" stroke-width="2"/>
  <rect x="655" y="335" width="180" height="30" fill="none" stroke="#F2DC8E" stroke-width="2"/>
  <rect x="655" y="369" width="180" height="30" fill="none" stroke="#F2DC8E" stroke-width="2"/>
  <text x="745" y="321" text-anchor="middle" fill="#EAF4FF" font-size="13">HEADPHONES 0.05 W</text>
  <text x="745" y="355" text-anchor="middle" fill="#EAF4FF" font-size="13">WATCH / EARBUDS</text>
  <text x="745" y="389" text-anchor="middle" fill="#EAF4FF" font-size="13">SENSORS / REMOTES</text>
  <text x="745" y="423" text-anchor="middle" fill="#F2DC8E" font-size="13" font-weight="bold">LIGHT TIER - charger-free forever</text>

  <line x1="60" y1="458" x2="840" y2="458" stroke="#8FD8FF" stroke-width="0.8"/>
  <text x="450" y="486" text-anchor="middle" fill="#EAF4FF" font-size="15" font-style="italic">Light in. Energy stored. Life fed through the air.</text>
  <text x="450" y="510" text-anchor="middle" fill="#9FBEDA" font-size="11">CC0 1.0 - Photon Room - Nick (BlueBamboo), Muscatine, Iowa - prior art, July 2026</text>
</svg>
