<?xml version="1.0" encoding="UTF-8"?>
<svg xmlns="http://www.w3.org/2000/svg" width="900" height="540" viewBox="0 0 900 540" font-family="monospace">
  <rect width="900" height="540" fill="#0E2A4A"/>
  <rect x="14" y="14" width="872" height="512" fill="none" stroke="#8FD8FF" stroke-width="2"/>

  <text x="450" y="48" text-anchor="middle" fill="#EAF4FF" font-size="24" font-weight="bold">THE PHOTON ROOM</text>
  <text x="450" y="72" text-anchor="middle" fill="#9FBEDA" font-size="13">sun to panel to banks - copper for the hungry, light for the small</text>

  <circle cx="110" cy="190" r="34" fill="none" stroke="#F2DC8E" stroke-width="3"/>
  <line x1="110" y1="138" x2="110" y2="122" stroke="#F2DC8E" stroke-width="3"/>
  <line x1="110" y1="242" x2="110" y2="258" stroke="#F2DC8E" stroke-width="3"/>
  <line x1="58" y1="190" x2="42" y2="190" stroke="#F2DC8E" stroke-width="3"/>
  <line x1="162" y1="190" x2="178" y2="190" stroke="#F2DC8E" stroke-width="3"/>
  <line x1="73" y1="153" x2="62" y2="142" stroke="#F2DC8E" stroke-width="3"/>
  <line x1="147" y1="153" x2="158" y2="142" stroke="#F2DC8E" stroke-width="3"/>
  <line x1="73" y1="227" x2="62" y2="238" stroke="#F2DC8E" stroke-width="3"/>
  <line x1="147" y1="227" x2="158" y2="238" stroke="#F2DC8E" stroke-width="3"/>
  <text x="110" y="286" text-anchor="middle" fill="#F2DC8E" font-size="14">SUN</text>

  <line x1="180" y1="190" x2="206" y2="190" stroke="#F2DC8E" stroke-width="3"/>
  <polygon points="206,184 218,190 206,196" fill="#F2DC8E"/>

  <rect x="225" y="160" width="130" height="60" fill="none" stroke="#8FD8FF" stroke-width="2.5"/>
  <line x1="258" y1="160" x2="258" y2="220" stroke="#8FD8FF" stroke-width="1"/>
  <line x1="291" y1="160" x2="291" y2="220" stroke="#8FD8FF" stroke-width="1"/>
  <line x1="324" y1="160" x2="324" y2="220" stroke="#8FD8FF" stroke-width="1"/>
  <text x="290" y="244" text-anchor="middle" fill="#EAF4FF" font-size="14">SOLAR PANEL</text>
  <text x="290" y="262" text-anchor="middle" fill="#9FBEDA" font-size="11">100 W - USB-C out</text>

  <line x1="358" y1="190" x2="400" y2="190" stroke="#8FD8FF" stroke-width="3"/>
  <polygon points="400,184 412,190 400,196" fill="#8FD8FF"/>

  <text x="480" y="118" text-anchor="middle" fill="#EAF4FF" font-size="14">BANKS x3</text>
  <text x="480" y="136" text-anchor="middle" fill="#9FBEDA" font-size="11">99.5 Wh each - the flywheel</text>
  <rect x="420" y="148" width="120" height="24" fill="none" stroke="#8FD8FF" stroke-width="2"/>
  <rect x="420" y="178" width="120" height="24" fill="none" stroke="#8FD8FF" stroke-width="2"/>
  <rect x="420" y="208" width="120" height="24" fill="none" stroke="#8FD8FF" stroke-width="2"/>

  <text x="590" y="164" text-anchor="middle" fill="#8FD8FF" font-size="12">USB-C PD</text>
  <text x="590" y="180" text-anchor="middle" fill="#8FD8FF" font-size="12">to 140 W</text>
  <line x1="543" y1="190" x2="636" y2="190" stroke="#8FD8FF" stroke-width="3"/>
  <polygon points="636,184 648,190 636,196" fill="#8FD8FF"/>

  <rect x="655" y="120" width="180" height="30" fill="none" stroke="#8FD8FF" stroke-width="2"/>
  <rect x="655" y="154" width="180" height="30" fill="none" stroke="#8FD8FF" stroke-width="2"/>
  <rect x="655" y="188" width="180" height="30" fill="none" stroke="#8FD8FF" stroke-width="2"/>
  <text x="745" y="140" text-anchor="middle" fill="#EAF4FF" font-size="13">LAPTOP 30-140 W</text>
  <text x="745" y="174" text-anchor="middle" fill="#EAF4FF" font-size="13">PHONE 20 W</text>
  <text x="745" y="208" text-anchor="middle" fill="#EAF4FF" font-size="13">FAN / SPEAKER</text>
  <text x="745" y="242" text-anchor="middle" fill="#8FD8FF" font-size="13" font-weight="bold">COPPER TIER - the gulpers</text>

  <line x1="480" y1="236" x2="480" y2="292" stroke="#8FD8FF" stroke-width="3"/>
  <polygon points="474,292 486,292 480,304" fill="#8FD8FF"/>

  <rect x="380" y="308" width="200" height="92" fill="none" stroke="#F2DC8E" stroke-width="2.5"/>
  <text x="480" y="340" text-anchor="middle" fill="#F2DC8E" font-size="13">IR EMITTER</text>
  <text x="480" y="362" text-anchor="middle" fill="#9FBEDA" font-size="11">Class 1 eye-safe</text>
  <text x="480" y="380" text-anchor="middle" fill="#9FBEDA" font-size="11">interlock under 10 ms</text>

  <line x1="584" y1="322" x2="636" y2="322" stroke="#F2DC8E" stroke-width="2.5" stroke-dasharray="7,6"/>
  <polygon points="636,316 648,322 636,328" fill="#F2DC8E"/>
  <line x1="584" y1="354" x2="636" y2="354" stroke="#F2DC8E" stroke-width="2.5" stroke-dasharray="7,6"/>
  <polygon points="636,348 648,354 636,360" fill="#F2DC8E"/>
  <line x1="584" y1="386" x2="636" y2="386" stroke="#F2DC8E" stroke-width="2.5" stroke-dasharray="7,6"/>
  <polygon points="636,380 648,386 636,392" fill="#F2DC8E"/>

  <rect x="655" y="307" width="180" height="30" fill="none" stroke="#F2DC8E" stroke-width="2"/>
  <rect x="655" y="341" width="180" height="30" fill="none" stroke="#F2DC8E" stroke-width="2"/>
  <rect x="655" y="375" width="180" height="30" fill="none" stroke="#F2DC8E" stroke-width="2"/>
  <text x="745" y="327" text-anchor="middle" fill="#EAF4FF" font-size="13">HEADPHONES 0.05 W</text>
  <text x="745" y="361" text-anchor="middle" fill="#EAF4FF" font-size="13">WATCH / EARBUDS</text>
  <text x="745" y="395" text-anchor="middle" fill="#EAF4FF" font-size="13">SENSORS / REMOTES</text>
  <text x="745" y="429" text-anchor="middle" fill="#F2DC8E" font-size="13" font-weight="bold">LIGHT TIER - charger-free forever</text>

  <line x1="60" y1="458" x2="840" y2="458" stroke="#8FD8FF" stroke-width="0.8"/>
  <text x="450" y="486" text-anchor="middle" fill="#EAF4FF" font-size="15" font-style="italic">Light in. Energy stored. Life fed through the air.</text>
  <text x="450" y="510" text-anchor="middle" fill="#9FBEDA" font-size="11">CC0 1.0 - Photon Room - Nick (BlueBamboo), Muscatine, Iowa - prior art, July 2026</text>
</svg>
